<svg width="16" height="17" viewBox="0 0 16 17" fill="none" xmlns="http://www.w3.org/2000/svg">
<g clip-path="url(#clip0_5_5497)">
<path d="M8 1.83331C4.32667 1.83331 1.33333 4.82665 1.33333 8.49998C1.33333 12.1733 4.32667 15.1666 8 15.1666C11.6733 15.1666 14.6667 12.1733 14.6667 8.49998C14.6667 4.82665 11.6733 1.83331 8 1.83331ZM8 14.1666C4.87333 14.1666 2.33333 11.6266 2.33333 8.49998C2.33333 5.37331 4.87333 2.83331 8 2.83331C11.1267 2.83331 13.6667 5.37331 13.6667 8.49998C13.6667 11.6266 11.1267 14.1666 8 14.1666Z" fill="#8E8F98"/>
<path d="M9.92333 10.0733C9.92333 10.9333 9.35 11.5933 8.50333 11.78V12.6666C8.50333 12.94 8.27667 13.1666 8.00333 13.1666C7.73 13.1666 7.50333 12.94 7.50333 12.6666V11.78C6.65667 11.5933 6.08333 10.9333 6.08333 10.0733C6.08333 9.79998 6.31 9.57331 6.59 9.57331C6.86333 9.57331 7.08333 9.79998 7.08333 10.0733C7.08333 10.6333 7.58333 10.8333 8.00333 10.8333C8.42333 10.8333 8.92333 10.6333 8.92333 10.0733C8.92333 9.61998 8.70333 9.45331 7.49667 8.73331L7.27 8.59998C6.74333 8.29331 6.08333 7.91331 6.08333 6.92665C6.08333 6.06665 6.65667 5.40665 7.50333 5.21998V4.33331C7.50333 4.05998 7.73 3.83331 8.00333 3.83331C8.27667 3.83331 8.50333 4.05998 8.50333 4.33331V5.23331C9.31667 5.45331 9.92333 6.19998 9.92333 7.08665C9.92333 7.35998 9.69667 7.57998 9.41667 7.57998C9.14333 7.57998 8.92333 7.35998 8.92333 7.08665C8.92333 6.57998 8.51 6.16665 8.00333 6.16665C7.58333 6.16665 7.08333 6.36665 7.08333 6.92665C7.08333 7.31998 7.26333 7.43998 7.77 7.73331L7.95 7.83998C9.24333 8.61331 9.92333 9.01998 9.92333 10.0733Z" fill="#8E8F98"/>
</g>
<defs>
<clipPath id="clip0_5_5497">
<rect width="16" height="16" fill="white" transform="translate(0 0.5)"/>
</clipPath>
</defs>
</svg>
